<mxfile host="Electron" modified="2023-08-30T07:41:52.249Z" agent="Mozilla/5.0 (Windows NT 10.0; Win64; x64) AppleWebKit/537.36 (KHTML, like Gecko) draw.io/21.3.7 Chrome/112.0.5615.204 Electron/24.5.0 Safari/537.36" etag="Eca8VDSZEgjVjW07Asmp" version="21.3.7" type="device">
  <diagram id="ssUUaxzEcrllIjIMbvva" name="Class Diagram">
    <mxGraphModel dx="1571" dy="184" grid="1" gridSize="10" guides="1" tooltips="1" connect="1" arrows="1" fold="1" page="1" pageScale="1" pageWidth="1169" pageHeight="827" math="0" shadow="0">
      <root>
        <mxCell id="0" />
        <mxCell id="1" parent="0" />
        <mxCell id="RAmZ6fOHbGI91Pj-f4mO-6" value="" style="rounded=0;whiteSpace=wrap;html=1;" parent="1" vertex="1">
          <mxGeometry x="10" y="840" width="2310" height="1740" as="geometry" />
        </mxCell>
        <mxCell id="egkqMNy7m-KPahkOpKZH-75" style="edgeStyle=none;rounded=0;orthogonalLoop=1;jettySize=auto;html=1;entryX=0.5;entryY=0;entryDx=0;entryDy=0;entryPerimeter=0;dashed=1;endArrow=classic;endFill=1;" parent="1" source="egkqMNy7m-KPahkOpKZH-30" target="egkqMNy7m-KPahkOpKZH-49" edge="1">
          <mxGeometry relative="1" as="geometry" />
        </mxCell>
        <mxCell id="egkqMNy7m-KPahkOpKZH-30" value="MySqlConnector" style="shape=module;align=left;spacingLeft=20;align=center;verticalAlign=middle;fillColor=#fad9d5;strokeColor=#ae4132;fontColor=#000000;" parent="1" vertex="1">
          <mxGeometry x="2009" y="1438" width="150" height="50" as="geometry" />
        </mxCell>
        <mxCell id="egkqMNy7m-KPahkOpKZH-52" value="" style="group" parent="1" vertex="1" connectable="0">
          <mxGeometry x="2044.5" y="1320" width="79" height="70" as="geometry" />
        </mxCell>
        <mxCell id="egkqMNy7m-KPahkOpKZH-49" value="" style="shape=cylinder3;whiteSpace=wrap;html=1;boundedLbl=1;backgroundOutline=1;size=15;fillColor=#eeeeee;strokeColor=#36393d;" parent="egkqMNy7m-KPahkOpKZH-52" vertex="1">
          <mxGeometry width="79" height="70" as="geometry" />
        </mxCell>
        <mxCell id="egkqMNy7m-KPahkOpKZH-51" value="&lt;font color=&quot;#000000&quot;&gt;MySQL&lt;/font&gt;" style="text;html=1;strokeColor=none;fillColor=none;align=center;verticalAlign=middle;whiteSpace=wrap;rounded=0;" parent="egkqMNy7m-KPahkOpKZH-52" vertex="1">
          <mxGeometry x="9.5" y="30" width="60" height="30" as="geometry" />
        </mxCell>
        <mxCell id="RAmZ6fOHbGI91Pj-f4mO-3" style="edgeStyle=orthogonalEdgeStyle;rounded=0;orthogonalLoop=1;jettySize=auto;html=1;exitX=0;exitY=0;exitDx=0;exitDy=281.5;exitPerimeter=0;entryX=0;entryY=0;entryDx=0;entryDy=569;entryPerimeter=0;endArrow=block;endFill=0;endSize=9;" parent="1" source="Y15KBYualhM6AdpMUvsq-38" target="5MIo5IohsxzSEOuP6_mu-1" edge="1">
          <mxGeometry relative="1" as="geometry" />
        </mxCell>
        <mxCell id="Y15KBYualhM6AdpMUvsq-38" value="&lt;font color=&quot;#000000&quot;&gt;CFMConsole&lt;/font&gt;" style="shape=folder;fontStyle=1;tabWidth=110;tabHeight=30;tabPosition=left;html=1;boundedLbl=1;labelInHeader=1;container=1;collapsible=0;recursiveResize=0;fillColor=#D4F9AE;strokeColor=#36393d;strokeWidth=2;" parent="1" vertex="1">
          <mxGeometry x="225" y="858" width="1680" height="533" as="geometry" />
        </mxCell>
        <mxCell id="Y15KBYualhM6AdpMUvsq-42" value="&lt;p style=&quot;margin:0px;margin-top:4px;text-align:center;&quot;&gt;&lt;b&gt;ConsoleUI&lt;/b&gt;&lt;/p&gt;&lt;hr size=&quot;1&quot;&gt;&lt;p style=&quot;margin:0px;margin-left:4px;&quot;&gt;&lt;font color=&quot;#000000&quot;&gt;+ sizeBL : SizeBL&lt;/font&gt;&lt;/p&gt;&lt;p style=&quot;margin:0px;margin-left:4px;&quot;&gt;&lt;font color=&quot;#000000&quot;&gt;+ productBL : ProductBL&lt;/font&gt;&lt;/p&gt;&lt;p style=&quot;margin:0px;margin-left:4px;&quot;&gt;&lt;font color=&quot;#000000&quot;&gt;+ staffBL : StaffBL&lt;/font&gt;&lt;/p&gt;&lt;hr size=&quot;1&quot;&gt;&lt;p style=&quot;margin:0px;margin-left:4px;&quot;&gt;&lt;font color=&quot;#000000&quot;&gt;+ Line() : void&lt;/font&gt;&lt;/p&gt;&lt;p style=&quot;margin:0px;margin-left:4px;&quot;&gt;&lt;font color=&quot;#000000&quot;&gt;+ TimeLineContent(step : int, title : string) : string&lt;/font&gt;&lt;/p&gt;&lt;p style=&quot;margin:0px;margin-left:4px;&quot;&gt;&lt;font color=&quot;#000000&quot;&gt;+ TimeLine(content : string) : void&lt;/font&gt;&lt;/p&gt;&lt;p style=&quot;margin:0px;margin-left:4px;&quot;&gt;&lt;font color=&quot;#000000&quot;&gt;+ PressAnyKeyToContinue() : void&lt;/font&gt;&lt;/p&gt;&lt;p style=&quot;margin:0px;margin-left:4px;&quot;&gt;&lt;font color=&quot;#000000&quot;&gt;+ ApplicationAfterLogin(staff : Staff) : void&lt;/font&gt;&lt;/p&gt;&lt;p style=&quot;margin:0px;margin-left:4px;&quot;&gt;&lt;font color=&quot;#000000&quot;&gt;+ ApplicationBeforeLogin() : void&lt;/font&gt;&lt;/p&gt;&lt;p style=&quot;margin:0px;margin-left:4px;&quot;&gt;&lt;font color=&quot;#000000&quot;&gt;+ Introduction() : void&lt;/font&gt;&lt;/p&gt;&lt;p style=&quot;margin:0px;margin-left:4px;&quot;&gt;&lt;font color=&quot;#000000&quot;&gt;+ Menu(title : string, item[]) : string&lt;/font&gt;&lt;/p&gt;&lt;p style=&quot;margin:0px;margin-left:4px;&quot;&gt;&lt;font color=&quot;#000000&quot;&gt;+ Title(title : string) : void&lt;/font&gt;&lt;/p&gt;&lt;p style=&quot;margin:0px;margin-left:4px;&quot;&gt;&lt;font color=&quot;#000000&quot;&gt;+ TitleNoBorder(title : string) : void&lt;/font&gt;&lt;/p&gt;&lt;p style=&quot;margin:0px;margin-left:4px;&quot;&gt;&lt;font color=&quot;#000000&quot;&gt;+ PrintProductTable(productList : Product[], staff : Staff, title : string) : void&lt;/font&gt;&lt;/p&gt;&lt;p style=&quot;margin:0px;margin-left:4px;&quot;&gt;&lt;font color=&quot;#000000&quot;&gt;+ PrintAllProductInstock(productlist : Product[], staff : Staff, title : string) : void&lt;/font&gt;&lt;/p&gt;&lt;p style=&quot;margin:0px;margin-left:4px;&quot;&gt;&lt;font color=&quot;#000000&quot;&gt;+ RedMessage (message : string) : void&lt;/font&gt;&lt;/p&gt;&lt;p style=&quot;margin:0px;margin-left:4px;&quot;&gt;&lt;font color=&quot;#000000&quot;&gt;+ GreenMessage(message : string) : void&lt;/font&gt;&lt;/p&gt;&lt;p style=&quot;margin:0px;margin-left:4px;&quot;&gt;&lt;font color=&quot;#000000&quot;&gt;+ WelcomeStaff(staff : Staff) : void&lt;/font&gt;&lt;/p&gt;&lt;p style=&quot;margin:0px;margin-left:4px;&quot;&gt;+ PrintAllTables(listTable : Table[]) : void&amp;nbsp;&lt;/p&gt;&lt;p style=&quot;margin:0px;margin-left:4px;&quot;&gt;+ PrintSaleReceipt(order : Order, currentStaff : Staff, orderStaff : Staff, title : string) : void&lt;/p&gt;&lt;p style=&quot;margin:0px;margin-left:4px;&quot;&gt;+ Ask(ask : string) : string&lt;/p&gt;&lt;p style=&quot;margin:0px;margin-left:4px;&quot;&gt;+ About (currentStaff : Staff) : void&lt;/p&gt;&lt;p style=&quot;margin:0px;margin-left:4px;&quot;&gt;+ PrintListOrderTakeAway(listOrder : Order[] ,&amp;nbsp; staff : Staff,&amp;nbsp; title : string) : void&lt;/p&gt;&lt;p style=&quot;margin:0px;margin-left:4px;&quot;&gt;+ PrintListOrderInBar(listOrder : Order[] ,&amp;nbsp; staff : Staff,&amp;nbsp; title : string) : void&lt;/p&gt;&lt;p style=&quot;margin:0px;margin-left:4px;&quot;&gt;+ PrintOrderDetails(listProducts : Product[], currentstaff : Staff, order : Order, title : string, staffName : string, step : int) : void&lt;/p&gt;&lt;p style=&quot;margin:0px;margin-left:4px;&quot;&gt;+ SellectFunction(item : string[]) : string&lt;/p&gt;&lt;p style=&quot;margin:0px;margin-left:4px;&quot;&gt;+ PrintListOrderInProgress (listOrderInBar : Order[], ordersTakeAway : Order[], currentstaff : Staff,, title : string) : void&lt;/p&gt;" style="verticalAlign=top;align=left;overflow=fill;fontSize=12;fontFamily=Helvetica;html=1;fillColor=#dae8fc;strokeColor=#6c8ebf;container=0;" parent="Y15KBYualhM6AdpMUvsq-38" vertex="1">
          <mxGeometry x="962" y="52.5" width="660" height="442" as="geometry" />
        </mxCell>
        <mxCell id="RAmZ6fOHbGI91Pj-f4mO-2" style="edgeStyle=orthogonalEdgeStyle;rounded=0;orthogonalLoop=1;jettySize=auto;html=1;exitX=1;exitY=0.5;exitDx=0;exitDy=0;entryX=0;entryY=0.5;entryDx=0;entryDy=0;endArrow=block;endFill=0;" parent="Y15KBYualhM6AdpMUvsq-38" source="Y15KBYualhM6AdpMUvsq-43" target="Y15KBYualhM6AdpMUvsq-42" edge="1">
          <mxGeometry relative="1" as="geometry" />
        </mxCell>
        <mxCell id="Y15KBYualhM6AdpMUvsq-43" value="&lt;p style=&quot;margin:0px;margin-top:4px;text-align:center;&quot;&gt;&lt;b&gt;Ults&lt;/b&gt;&lt;/p&gt;&lt;hr size=&quot;1&quot;&gt;&lt;p style=&quot;margin:0px;margin-left:4px;&quot;&gt;&lt;font color=&quot;#000000&quot;&gt;+ UI : ConsoleUI&lt;/font&gt;&lt;/p&gt;&lt;p style=&quot;margin:0px;margin-left:4px;&quot;&gt;&lt;font color=&quot;#000000&quot;&gt;+ orderBL : OrderBL&lt;/font&gt;&lt;/p&gt;&lt;p style=&quot;margin:0px;margin-left:4px;&quot;&gt;&lt;font color=&quot;#000000&quot;&gt;+ productBL : ProductBL&lt;/font&gt;&lt;/p&gt;&lt;p style=&quot;margin:0px;margin-left:4px;&quot;&gt;&lt;font color=&quot;#000000&quot;&gt;+ staffBL : StaffBL&lt;/font&gt;&lt;/p&gt;&lt;p style=&quot;margin:0px;margin-left:4px;&quot;&gt;&lt;font color=&quot;#000000&quot;&gt;+ tableBL : TableBL&lt;/font&gt;&lt;/p&gt;&lt;hr size=&quot;1&quot;&gt;&lt;p style=&quot;margin:0px;margin-left:4px;&quot;&gt;+ CreateOrder(currentStaff : Staff) : void&lt;/p&gt;&lt;p style=&quot;margin:0px;margin-left:4px;&quot;&gt;+ UpdateOrder(currentStaff : Staff) : void&lt;/p&gt;&lt;p style=&quot;margin:0px;margin-left:4px;&quot;&gt;+ Payment(currentStaff : Staff) : void&lt;/p&gt;&lt;p style=&quot;margin:0px;margin-left:4px;&quot;&gt;+ GetProductToAddToOrder(lstproduct : Product[], orderStaff : Staff, title : String) : Product&lt;/p&gt;&lt;p style=&quot;margin:0px;margin-left:4px;&quot;&gt;+ GetOrderToViewDetails(listOrder : Order, currentStaff : Staff, title : String, subtitle : String) : Order&lt;/p&gt;&lt;p style=&quot;margin:0px;margin-left:4px;&quot;&gt;+ GetProductToChange(order : Order, title : String, orderStaff : Staff, currentStaff : Staff) : Product[]&lt;/p&gt;&lt;p style=&quot;margin:0px;margin-left:4px;&quot;&gt;+ ChangeProductStatusToComplete(order : Order, title : String, orderStaff : Staff, currentStaff : Staff) : void&lt;/p&gt;&lt;p style=&quot;margin:0px;margin-left:4px;&quot;&gt;+ UpdateProductStatusInstock(currentStaff : Staff) : void&lt;/p&gt;&lt;p style=&quot;margin:0px;margin-left:4px;&quot;&gt;+ RemoveProductsInOrder(title : String, order : Order, orderStaff : Staff, currentStaff : Staff) : void&lt;/p&gt;&lt;p style=&quot;margin:0px;margin-left:4px;&quot;&gt;+ IsValidNumberString(input : string) : bool&lt;/p&gt;&lt;p style=&quot;margin:0px;margin-left:4px;&quot;&gt;+ InputTotal() : decimal&lt;/p&gt;&lt;p style=&quot;margin:0px;margin-left:4px;&quot;&gt;+ FormatCurrency(input : string) : string&lt;/p&gt;&lt;p style=&quot;margin:0px;margin-left:4px;&quot;&gt;+ ChooseProductsize(currentStaff : Staff, productId : Int, title : String) : int&lt;/p&gt;&lt;p style=&quot;margin:0px;margin-left:4px;&quot;&gt;+ InputQuantity(product : Product, currentStaff : Staff, title : String) : int&lt;/p&gt;&lt;p style=&quot;margin:0px;margin-left:4px;&quot;&gt;+ ChooseTable(currentStaff : Staff, title : String, tableOrder :&amp;nbsp; int)&lt;/p&gt;&lt;p style=&quot;margin:0px;margin-left:4px;&quot;&gt;+ CheckOut(currentStaff : Staff) : bool&lt;/p&gt;&lt;p style=&quot;margin:0px;margin-left:4px;&quot;&gt;+ ChangePasswordMD5(password : String) : string&lt;/p&gt;&lt;p style=&quot;margin:0px;margin-left:4px;&quot;&gt;+ GetPassword() : string&lt;/p&gt;&lt;div&gt;&lt;br&gt;&lt;/div&gt;" style="verticalAlign=top;align=left;overflow=fill;fontSize=12;fontFamily=Helvetica;html=1;fillColor=#dae8fc;strokeColor=#6c8ebf;container=0;" parent="Y15KBYualhM6AdpMUvsq-38" vertex="1">
          <mxGeometry x="234" y="83" width="660" height="382" as="geometry" />
        </mxCell>
        <mxCell id="RAmZ6fOHbGI91Pj-f4mO-1" style="edgeStyle=orthogonalEdgeStyle;rounded=0;orthogonalLoop=1;jettySize=auto;html=1;exitX=1;exitY=0.5;exitDx=0;exitDy=0;entryX=0;entryY=0.5;entryDx=0;entryDy=0;endArrow=block;endFill=0;" parent="Y15KBYualhM6AdpMUvsq-38" source="Y15KBYualhM6AdpMUvsq-91" target="Y15KBYualhM6AdpMUvsq-43" edge="1">
          <mxGeometry relative="1" as="geometry" />
        </mxCell>
        <mxCell id="Y15KBYualhM6AdpMUvsq-91" value="&lt;p style=&quot;margin:0px;margin-top:4px;text-align:center;&quot;&gt;&lt;b&gt;Program&lt;/b&gt;&lt;/p&gt;&lt;hr size=&quot;1&quot;&gt;&lt;p style=&quot;margin:0px;margin-left:4px;&quot;&gt;&lt;font color=&quot;#000000&quot;&gt;+ uI : ConsoleUI&lt;/font&gt;&lt;/p&gt;&lt;p style=&quot;margin:0px;margin-left:4px;&quot;&gt;&lt;font color=&quot;#000000&quot;&gt;+ staffBL : StaffBL&lt;/font&gt;&lt;/p&gt;&lt;p style=&quot;margin:0px;margin-left:4px;&quot;&gt;&lt;font color=&quot;#000000&quot;&gt;+ orderBL : OrderBL&lt;/font&gt;&lt;/p&gt;&lt;p style=&quot;margin:0px;margin-left:4px;&quot;&gt;&lt;font color=&quot;#000000&quot;&gt;+ productBL : ProductBL&lt;/font&gt;&lt;/p&gt;&lt;hr size=&quot;1&quot;&gt;&lt;p style=&quot;margin:0px;margin-left:4px;&quot;&gt;&lt;font color=&quot;#000000&quot;&gt;+ main() : void&lt;/font&gt;&lt;/p&gt;" style="verticalAlign=top;align=left;overflow=fill;fontSize=12;fontFamily=Helvetica;html=1;fillColor=#dae8fc;strokeColor=#6c8ebf;container=0;" parent="Y15KBYualhM6AdpMUvsq-38" vertex="1">
          <mxGeometry x="31" y="211.25" width="154" height="124.5" as="geometry" />
        </mxCell>
        <mxCell id="Y15KBYualhM6AdpMUvsq-44" value="" style="group;strokeWidth=2;" parent="1" vertex="1" connectable="0">
          <mxGeometry x="224" y="1410" width="1746" height="1108" as="geometry" />
        </mxCell>
        <mxCell id="5MIo5IohsxzSEOuP6_mu-1" value="&lt;font color=&quot;#000000&quot;&gt;CSMLib&lt;br&gt;&lt;/font&gt;" style="shape=folder;fontStyle=1;tabWidth=110;tabHeight=30;tabPosition=left;html=1;boundedLbl=1;labelInHeader=1;container=0;collapsible=0;recursiveResize=0;fillColor=#B5EFF5;fontColor=#ffffff;strokeColor=#66B2FF;strokeWidth=2;" parent="Y15KBYualhM6AdpMUvsq-44" vertex="1">
          <mxGeometry width="1746" height="1108" as="geometry" />
        </mxCell>
        <mxCell id="5MIo5IohsxzSEOuP6_mu-2" value="&lt;font color=&quot;#1d1b1b&quot;&gt;Persistence&lt;/font&gt;" style="shape=folder;fontStyle=1;tabWidth=110;tabHeight=30;tabPosition=left;html=1;boundedLbl=1;labelInHeader=1;container=0;collapsible=0;recursiveResize=0;fillColor=#FFFFD9;strokeColor=#FFB570;strokeWidth=2;" parent="Y15KBYualhM6AdpMUvsq-44" vertex="1">
          <mxGeometry x="10" y="48" width="620" height="470" as="geometry" />
        </mxCell>
        <mxCell id="5MIo5IohsxzSEOuP6_mu-8" value="&lt;font color=&quot;#000000&quot;&gt;DAL&lt;/font&gt;" style="shape=folder;fontStyle=1;tabWidth=110;tabHeight=30;tabPosition=left;html=1;boundedLbl=1;labelInHeader=1;container=0;collapsible=0;recursiveResize=0;fillColor=#FFFF99;strokeColor=#7F89B0;strokeWidth=2;" parent="Y15KBYualhM6AdpMUvsq-44" vertex="1">
          <mxGeometry x="670" y="48" width="1054.5" height="470" as="geometry" />
        </mxCell>
        <mxCell id="5MIo5IohsxzSEOuP6_mu-13" value="&lt;font color=&quot;#000000&quot;&gt;BL&lt;/font&gt;" style="shape=folder;fontStyle=1;tabWidth=110;tabHeight=30;tabPosition=left;html=1;boundedLbl=1;labelInHeader=1;container=0;collapsible=0;recursiveResize=0;fillColor=#FFE4DE;strokeColor=#F0857F;strokeWidth=2;" parent="Y15KBYualhM6AdpMUvsq-44" vertex="1">
          <mxGeometry x="435.5" y="538" width="840.5" height="540" as="geometry" />
        </mxCell>
        <mxCell id="5MIo5IohsxzSEOuP6_mu-3" value="&lt;p style=&quot;margin:0px;margin-top:4px;text-align:center;&quot;&gt;&lt;b&gt;&lt;font color=&quot;#000000&quot;&gt;Staff&lt;/font&gt;&lt;/b&gt;&lt;/p&gt;&lt;hr size=&quot;1&quot;&gt;&lt;p style=&quot;margin:0px;margin-left:4px;&quot;&gt;&lt;font color=&quot;#000000&quot;&gt;+ StaffId: int&lt;/font&gt;&lt;/p&gt;&lt;p style=&quot;margin:0px;margin-left:4px;&quot;&gt;&lt;font color=&quot;#000000&quot;&gt;+ StaffName: String&lt;/font&gt;&lt;/p&gt;&lt;p style=&quot;margin:0px;margin-left:4px;&quot;&gt;&lt;font color=&quot;#000000&quot;&gt;+ UserName: String&lt;/font&gt;&lt;/p&gt;&lt;p style=&quot;margin:0px;margin-left:4px;&quot;&gt;&lt;font color=&quot;#000000&quot;&gt;+ Password: String&lt;/font&gt;&lt;/p&gt;&lt;p style=&quot;margin:0px;margin-left:4px;&quot;&gt;&lt;font color=&quot;#000000&quot;&gt;+ StaffStatus: Int&lt;/font&gt;&lt;/p&gt;&lt;p style=&quot;margin:0px;margin-left:4px;&quot;&gt;&lt;font color=&quot;#000000&quot;&gt;+ LoginTime: DateTime&lt;/font&gt;&lt;/p&gt;&lt;p style=&quot;margin:0px;margin-left:4px;&quot;&gt;&lt;font color=&quot;#000000&quot;&gt;+ LogoutTime: DateTime&lt;/font&gt;&lt;/p&gt;&lt;hr size=&quot;1&quot;&gt;&lt;p style=&quot;margin:0px;margin-left:4px;&quot;&gt;&lt;font color=&quot;#000000&quot;&gt;+ Staff()&lt;/font&gt;&lt;/p&gt;" style="verticalAlign=top;align=left;overflow=fill;fontSize=12;fontFamily=Helvetica;html=1;fillColor=#dae8fc;strokeColor=#6c8ebf;container=0;" parent="Y15KBYualhM6AdpMUvsq-44" vertex="1">
          <mxGeometry x="30" y="258" width="150" height="170" as="geometry" />
        </mxCell>
        <mxCell id="Y15KBYualhM6AdpMUvsq-1" style="edgeStyle=orthogonalEdgeStyle;rounded=0;orthogonalLoop=1;jettySize=auto;html=1;exitX=0.5;exitY=1;exitDx=0;exitDy=0;entryX=0.461;entryY=1.017;entryDx=0;entryDy=0;entryPerimeter=0;endArrow=diamondThin;endFill=1;endSize=9;" parent="Y15KBYualhM6AdpMUvsq-44" source="5MIo5IohsxzSEOuP6_mu-4" target="5MIo5IohsxzSEOuP6_mu-3" edge="1">
          <mxGeometry relative="1" as="geometry">
            <Array as="points">
              <mxPoint x="520" y="458" />
              <mxPoint x="62" y="458" />
            </Array>
          </mxGeometry>
        </mxCell>
        <mxCell id="5MIo5IohsxzSEOuP6_mu-4" value="&lt;p style=&quot;margin:0px;margin-top:4px;text-align:center;&quot;&gt;&lt;b&gt;&lt;font color=&quot;#000000&quot;&gt;Product&lt;/font&gt;&lt;/b&gt;&lt;/p&gt;&lt;hr size=&quot;1&quot;&gt;&lt;p style=&quot;margin:0px;margin-left:4px;&quot;&gt;&lt;font color=&quot;#000000&quot;&gt;+ ProductId: Int&lt;/font&gt;&lt;/p&gt;&lt;p style=&quot;margin:0px;margin-left:4px;&quot;&gt;&lt;font color=&quot;#000000&quot;&gt;+ ProductName: String&lt;/font&gt;&lt;/p&gt;&lt;p style=&quot;margin:0px;margin-left:4px;&quot;&gt;&lt;font color=&quot;#000000&quot;&gt;+ ProductPrice: String&lt;/font&gt;&lt;/p&gt;&lt;p style=&quot;margin:0px;margin-left:4px;&quot;&gt;&lt;font color=&quot;#000000&quot;&gt;+ ProductQuantity: Int&lt;/font&gt;&lt;/p&gt;&lt;p style=&quot;margin:0px;margin-left:4px;&quot;&gt;&lt;font color=&quot;#000000&quot;&gt;+ ProductDescription: String&lt;/font&gt;&lt;/p&gt;&lt;p style=&quot;margin:0px;margin-left:4px;&quot;&gt;&lt;font color=&quot;#000000&quot;&gt;+ ProductSizeId: int&lt;/font&gt;&lt;/p&gt;&lt;p style=&quot;margin:0px;margin-left:4px;&quot;&gt;&lt;font color=&quot;#000000&quot;&gt;+ ProductSize: char&lt;/font&gt;&lt;/p&gt;&lt;p style=&quot;margin:0px;margin-left:4px;&quot;&gt;&lt;font color=&quot;#000000&quot;&gt;+ ProductStatus: Int&lt;/font&gt;&lt;/p&gt;&lt;p style=&quot;margin:0px;margin-left:4px;&quot;&gt;&lt;font color=&quot;#000000&quot;&gt;+ StatusInOrder: Int&lt;/font&gt;&lt;/p&gt;&lt;p style=&quot;margin:0px;margin-left:4px;&quot;&gt;&lt;font color=&quot;#000000&quot;&gt;+ CreateTime: DateTime&lt;/font&gt;&lt;/p&gt;&lt;p style=&quot;margin:0px;margin-left:4px;&quot;&gt;&lt;font color=&quot;#000000&quot;&gt;+ CreateBy: Staff&lt;/font&gt;&lt;/p&gt;&lt;p style=&quot;margin:0px;margin-left:4px;&quot;&gt;&lt;font color=&quot;#000000&quot;&gt;+ UpdateTime: DateTime&lt;/font&gt;&lt;/p&gt;&lt;p style=&quot;margin:0px;margin-left:4px;&quot;&gt;+ UpdateBy: Staff&lt;/p&gt;&lt;hr size=&quot;1&quot;&gt;&lt;p style=&quot;margin:0px;margin-left:4px;&quot;&gt;&lt;font color=&quot;#000000&quot;&gt;+ Product()&amp;nbsp;&lt;/font&gt;&lt;/p&gt;" style="verticalAlign=top;align=left;overflow=fill;fontSize=12;fontFamily=Helvetica;html=1;fillColor=#dae8fc;strokeColor=#6c8ebf;container=0;" parent="Y15KBYualhM6AdpMUvsq-44" vertex="1">
          <mxGeometry x="461" y="98" width="154" height="255" as="geometry" />
        </mxCell>
        <mxCell id="5MIo5IohsxzSEOuP6_mu-20" style="rounded=0;orthogonalLoop=1;jettySize=auto;html=1;exitX=0;exitY=0.75;exitDx=0;exitDy=0;entryX=1;entryY=0.5;entryDx=0;entryDy=0;endArrow=diamondThin;endFill=1;edgeStyle=orthogonalEdgeStyle;endSize=9;" parent="Y15KBYualhM6AdpMUvsq-44" source="5MIo5IohsxzSEOuP6_mu-5" target="5MIo5IohsxzSEOuP6_mu-3" edge="1">
          <mxGeometry relative="1" as="geometry" />
        </mxCell>
        <mxCell id="5MIo5IohsxzSEOuP6_mu-5" value="&lt;p style=&quot;margin:0px;margin-top:4px;text-align:center;&quot;&gt;&lt;b&gt;&lt;font color=&quot;#0d0d0d&quot;&gt;Order&lt;/font&gt;&lt;/b&gt;&lt;/p&gt;&lt;hr size=&quot;1&quot;&gt;&lt;p style=&quot;margin:0px;margin-left:4px;&quot;&gt;&lt;font color=&quot;#0d0d0d&quot;&gt;+ OrderId: Int&amp;nbsp;&lt;/font&gt;&lt;/p&gt;&lt;p style=&quot;margin:0px;margin-left:4px;&quot;&gt;&lt;font color=&quot;#0d0d0d&quot;&gt;+ ProductList: Product[]&lt;/font&gt;&lt;/p&gt;&lt;p style=&quot;margin:0px;margin-left:4px;&quot;&gt;&lt;font color=&quot;#0d0d0d&quot;&gt;+ OrderStaffID: int&lt;/font&gt;&lt;/p&gt;&lt;p style=&quot;margin:0px;margin-left:4px;&quot;&gt;&lt;font color=&quot;#0d0d0d&quot;&gt;+ TableId: int&lt;/font&gt;&lt;/p&gt;&lt;p style=&quot;margin:0px;margin-left:4px;&quot;&gt;&lt;font color=&quot;#0d0d0d&quot;&gt;+ OrderStatus: Int&lt;/font&gt;&lt;/p&gt;&lt;p style=&quot;margin:0px;margin-left:4px;&quot;&gt;&lt;font color=&quot;#0d0d0d&quot;&gt;+ OrderDate: Datetime&lt;/font&gt;&lt;/p&gt;&lt;p style=&quot;margin:0px;margin-left:4px;&quot;&gt;&lt;font color=&quot;#0d0d0d&quot;&gt;+ Amount: Decimal&lt;/font&gt;&lt;/p&gt;&lt;hr size=&quot;1&quot;&gt;&lt;p style=&quot;margin:0px;margin-left:4px;&quot;&gt;&lt;span style=&quot;background-color: initial;&quot;&gt;&lt;font color=&quot;#0d0d0d&quot;&gt;+ Order()&lt;/font&gt;&lt;/span&gt;&lt;br&gt;&lt;/p&gt;" style="verticalAlign=top;align=left;overflow=fill;fontSize=12;fontFamily=Helvetica;html=1;fillColor=#dae8fc;strokeColor=#6c8ebf;container=0;" parent="Y15KBYualhM6AdpMUvsq-44" vertex="1">
          <mxGeometry x="230" y="98" width="190" height="160" as="geometry" />
        </mxCell>
        <mxCell id="5MIo5IohsxzSEOuP6_mu-6" value="" style="endArrow=none;startArrow=diamondThin;endFill=0;startFill=1;html=1;verticalAlign=bottom;labelBackgroundColor=none;strokeWidth=1;startSize=8;endSize=9;rounded=0;entryX=1;entryY=0.5;entryDx=0;entryDy=0;exitX=-0.006;exitY=0.314;exitDx=0;exitDy=0;strokeColor=#000000;exitPerimeter=0;" parent="Y15KBYualhM6AdpMUvsq-44" source="5MIo5IohsxzSEOuP6_mu-4" target="5MIo5IohsxzSEOuP6_mu-5" edge="1">
          <mxGeometry width="160" relative="1" as="geometry">
            <mxPoint x="-103" y="368" as="sourcePoint" />
            <mxPoint x="57" y="368" as="targetPoint" />
          </mxGeometry>
        </mxCell>
        <mxCell id="5MIo5IohsxzSEOuP6_mu-9" value="&lt;p style=&quot;margin:0px;margin-top:4px;text-align:center;&quot;&gt;&lt;b&gt;DbConfig&lt;/b&gt;&lt;/p&gt;&lt;hr size=&quot;1&quot;&gt;&lt;p style=&quot;margin:0px;margin-left:4px;&quot;&gt;&lt;font color=&quot;#000000&quot;&gt;- connection: MySqlConnection&lt;/font&gt;&lt;/p&gt;&lt;hr size=&quot;1&quot;&gt;&lt;p style=&quot;margin:0px;margin-left:4px;&quot;&gt;&lt;font color=&quot;#000000&quot;&gt;+ GetConnection(): MySqlConnection&lt;/font&gt;&lt;/p&gt;&lt;p style=&quot;border-color: var(--border-color); margin: 0px 0px 0px 4px;&quot;&gt;&lt;font style=&quot;border-color: var(--border-color);&quot; color=&quot;#000000&quot;&gt;+ GetDefaultConnection(): MySqlConnection&lt;/font&gt;&lt;/p&gt;&lt;p style=&quot;margin:0px;margin-left:4px;&quot;&gt;&lt;font color=&quot;#000000&quot;&gt;+ GetConnection(connectionString : string): MySqlConnection&lt;/font&gt;&lt;/p&gt;" style="verticalAlign=top;align=left;overflow=fill;fontSize=12;fontFamily=Helvetica;html=1;fillColor=#dae8fc;strokeColor=#6c8ebf;container=0;" parent="Y15KBYualhM6AdpMUvsq-44" vertex="1">
          <mxGeometry x="688" y="347" width="340" height="120" as="geometry" />
        </mxCell>
        <mxCell id="5MIo5IohsxzSEOuP6_mu-10" value="&lt;p style=&quot;margin:0px;margin-top:4px;text-align:center;&quot;&gt;&lt;b&gt;SizeDAL&lt;/b&gt;&lt;/p&gt;&lt;hr size=&quot;1&quot;&gt;&lt;p style=&quot;margin:0px;margin-left:4px;&quot;&gt;&lt;font color=&quot;#000000&quot;&gt;- connection: DBConfig&lt;br&gt;&lt;/font&gt;&lt;/p&gt;&lt;p style=&quot;margin:0px;margin-left:4px;&quot;&gt;&lt;font color=&quot;#000000&quot;&gt;- query : String&lt;/font&gt;&lt;/p&gt;&lt;hr size=&quot;1&quot;&gt;&lt;p style=&quot;margin:0px;margin-left:4px;&quot;&gt;&lt;font color=&quot;#000000&quot;&gt;+&amp;nbsp;&lt;/font&gt;GetProductSize(reader : MySqlDataReader) : Size&lt;/p&gt;&lt;p style=&quot;margin:0px;margin-left:4px;&quot;&gt;+&amp;nbsp;GetSize(reader : MySqlDataReader) : Size&lt;/p&gt;&lt;p style=&quot;margin:0px;margin-left:4px;&quot;&gt;+ GetSizeBySizeId(sizeId : Int)&lt;/p&gt;" style="verticalAlign=top;align=left;overflow=fill;fontSize=12;fontFamily=Helvetica;html=1;fillColor=#dae8fc;strokeColor=#6c8ebf;container=0;" parent="Y15KBYualhM6AdpMUvsq-44" vertex="1">
          <mxGeometry x="1350" y="337" width="340" height="130" as="geometry" />
        </mxCell>
        <mxCell id="5MIo5IohsxzSEOuP6_mu-11" value="&lt;p style=&quot;margin:0px;margin-top:4px;text-align:center;&quot;&gt;&lt;b&gt;OrderDAL&lt;/b&gt;&lt;/p&gt;&lt;hr size=&quot;1&quot;&gt;&lt;p style=&quot;margin:0px;margin-left:4px;&quot;&gt;&lt;font color=&quot;#000000&quot;&gt;- connection : DbConfig&lt;/font&gt;&lt;/p&gt;&lt;p style=&quot;margin:0px;margin-left:4px;&quot;&gt;- query : String&lt;font color=&quot;#000000&quot;&gt;&lt;br&gt;&lt;/font&gt;&lt;/p&gt;&lt;hr size=&quot;1&quot;&gt;&lt;p style=&quot;margin:0px;margin-left:4px;&quot;&gt;&lt;font color=&quot;#000000&quot;&gt;+ SaveOrder(order : Order)&lt;/font&gt;&lt;/p&gt;&lt;p style=&quot;margin:0px;margin-left:4px;&quot;&gt;&lt;font color=&quot;#000000&quot;&gt;+ UpdateOrder(order : Order)&lt;/font&gt;&lt;/p&gt;&lt;p style=&quot;margin:0px;margin-left:4px;&quot;&gt;&lt;font color=&quot;#000000&quot;&gt;+ DeleteOrder(order : Order)&lt;/font&gt;&lt;/p&gt;&lt;p style=&quot;margin:0px;margin-left:4px;&quot;&gt;&lt;font color=&quot;#000000&quot;&gt;+ GetOrder(reader : MySqlDataReader) : Order&lt;/font&gt;&lt;/p&gt;&lt;p style=&quot;margin:0px;margin-left:4px;&quot;&gt;&lt;font color=&quot;#000000&quot;&gt;+ GetOrdersInBar() : Order[]&lt;/font&gt;&lt;/p&gt;&lt;p style=&quot;margin:0px;margin-left:4px;&quot;&gt;&lt;font color=&quot;#000000&quot;&gt;+&amp;nbsp;&lt;/font&gt;GetTakeAwayOrders() : Order[]&lt;/p&gt;&lt;p style=&quot;margin:0px;margin-left:4px;&quot;&gt;+&amp;nbsp;CompleteOrder(order : Order)&lt;/p&gt;&lt;p style=&quot;margin:0px;margin-left:4px;&quot;&gt;+&amp;nbsp;GetOrderById(orderId : int) : Order&lt;/p&gt;&lt;p style=&quot;margin:0px;margin-left:4px;&quot;&gt;+ GetOrderByTable(tableId) : Order&lt;/p&gt;&lt;p style=&quot;margin:0px;margin-left:4px;&quot;&gt;+ GetOrderCompleteInDay() : Order&lt;/p&gt;&lt;p style=&quot;margin:0px;margin-left:4px;&quot;&gt;+ ChangeTableOrder(newTableId : Int, order : Order)&lt;/p&gt;" style="verticalAlign=top;align=left;overflow=fill;fontSize=12;fontFamily=Helvetica;html=1;fillColor=#dae8fc;strokeColor=#6c8ebf;container=0;" parent="Y15KBYualhM6AdpMUvsq-44" vertex="1">
          <mxGeometry x="1042.25" y="97" width="280" height="240" as="geometry" />
        </mxCell>
        <mxCell id="5MIo5IohsxzSEOuP6_mu-12" value="&lt;p style=&quot;margin:0px;margin-top:4px;text-align:center;&quot;&gt;&lt;b&gt;&lt;font color=&quot;#000000&quot;&gt;ProductDAL&lt;/font&gt;&lt;/b&gt;&lt;/p&gt;&lt;hr size=&quot;1&quot;&gt;&lt;p style=&quot;margin:0px;margin-left:4px;&quot;&gt;&lt;span style=&quot;background-color: initial;&quot;&gt;- connection: DBConfig&lt;/span&gt;&lt;br&gt;&lt;/p&gt;&lt;p style=&quot;margin:0px;margin-left:4px;&quot;&gt;&lt;font color=&quot;#000000&quot;&gt;- query : String&lt;/font&gt;&lt;/p&gt;&lt;hr size=&quot;1&quot;&gt;&lt;p style=&quot;margin:0px;margin-left:4px;&quot;&gt;&lt;span style=&quot;background-color: initial;&quot;&gt;+ GetProductById(ProductId): Product&lt;/span&gt;&lt;br&gt;&lt;/p&gt;&lt;p style=&quot;margin:0px;margin-left:4px;&quot;&gt;&lt;font color=&quot;#000000&quot;&gt;+ GetProduct(reader : MySqlDataReader): Product&lt;/font&gt;&lt;/p&gt;&lt;p style=&quot;border-color: var(--border-color); margin: 0px 0px 0px 4px;&quot;&gt;+ GetProductInStockById(ProductId : Int): Product&lt;br style=&quot;border-color: var(--border-color);&quot;&gt;&lt;/p&gt;&lt;p style=&quot;border-color: var(--border-color); margin: 0px 0px 0px 4px;&quot;&gt;+ GetProductByIdAndSize(ProductId : Int, sizeId : Int): Product&lt;br style=&quot;border-color: var(--border-color);&quot;&gt;&lt;/p&gt;&lt;p style=&quot;border-color: var(--border-color); margin: 0px 0px 0px 4px;&quot;&gt;+ GetAllProductInfo(reader : MySqlDataReader) : Product&lt;/p&gt;&lt;p style=&quot;border-color: var(--border-color); margin: 0px 0px 0px 4px;&quot;&gt;+ GetProductInOrder(reader : MySqlDataReader) : Product&lt;/p&gt;&lt;p style=&quot;border-color: var(--border-color); margin: 0px 0px 0px 4px;&quot;&gt;+ GetAllProductActive() : Product[]&lt;/p&gt;&lt;p style=&quot;border-color: var(--border-color); margin: 0px 0px 0px 4px;&quot;&gt;+ GetListProductInOrder(orderId : Int) : Product[]&lt;/p&gt;&lt;p style=&quot;border-color: var(--border-color); margin: 0px 0px 0px 4px;&quot;&gt;+&amp;nbsp;GetListAllProductInstock() : Product[]&lt;/p&gt;&lt;p style=&quot;border-color: var(--border-color); margin: 0px 0px 0px 4px;&quot;&gt;+&amp;nbsp;ChangeProductStatus(newStatus : Int, productId : Int)&lt;/p&gt;&lt;div&gt;&lt;span style=&quot;border-color: var(--border-color); background-color: initial;&quot;&gt;&lt;br&gt;&lt;/span&gt;&lt;/div&gt;&lt;div&gt;&lt;span style=&quot;border-color: var(--border-color); background-color: initial;&quot;&gt;&lt;br&gt;&lt;/span&gt;&lt;/div&gt;" style="verticalAlign=top;align=left;overflow=fill;fontSize=12;fontFamily=Helvetica;html=1;fillColor=#dae8fc;strokeColor=#6c8ebf;container=0;" parent="Y15KBYualhM6AdpMUvsq-44" vertex="1">
          <mxGeometry x="1350" y="98" width="340" height="220" as="geometry" />
        </mxCell>
        <mxCell id="5MIo5IohsxzSEOuP6_mu-14" value="&lt;p style=&quot;margin:0px;margin-top:4px;text-align:center;&quot;&gt;&lt;b&gt;&lt;font color=&quot;#000000&quot;&gt;StaffDAL&lt;/font&gt;&lt;/b&gt;&lt;/p&gt;&lt;hr size=&quot;1&quot;&gt;&lt;p style=&quot;margin:0px;margin-left:4px;&quot;&gt;&lt;font color=&quot;#000000&quot;&gt;- connection : Dbconfig&lt;/font&gt;&lt;/p&gt;&lt;p style=&quot;margin:0px;margin-left:4px;&quot;&gt;- query : String&lt;font color=&quot;#000000&quot;&gt;&lt;br&gt;&lt;/font&gt;&lt;/p&gt;&lt;hr size=&quot;1&quot;&gt;&lt;p style=&quot;margin:0px;margin-left:4px;&quot;&gt;&lt;font color=&quot;#000000&quot;&gt;+ CheckAuthorize(userName, password): Staff&lt;/font&gt;&lt;/p&gt;&lt;p style=&quot;margin:0px;margin-left:4px;&quot;&gt;&lt;font color=&quot;#000000&quot;&gt;+ GetLastStaffLogOut() : Staff&lt;/font&gt;&lt;/p&gt;&lt;p style=&quot;margin:0px;margin-left:4px;&quot;&gt;+&amp;nbsp;GetStaffByID (staffId : Int) : Staff&lt;/p&gt;&lt;p style=&quot;margin:0px;margin-left:4px;&quot;&gt;+&amp;nbsp;CheckNullableInLogindetails()&lt;/p&gt;&lt;p style=&quot;margin:0px;margin-left:4px;&quot;&gt;+&amp;nbsp;InsertNewLoginDetails (staff : Staff)&lt;/p&gt;&lt;p style=&quot;margin:0px;margin-left:4px;&quot;&gt;+&amp;nbsp;UpdateLogoutTime (timeFormat : string, total : Decimal)&lt;/p&gt;&lt;p style=&quot;margin:0px;margin-left:4px;&quot;&gt;+ InsertProblemLogin(problem : String)&lt;/p&gt;&lt;p style=&quot;margin:0px;margin-left:4px;&quot;&gt;+ GetStaffAccount(UserName :String&lt;/p&gt;&lt;p style=&quot;margin:0px;margin-left:4px;&quot;&gt;+ GetStaff(reader : MySqlDataReader)&lt;/p&gt;" style="verticalAlign=top;align=left;overflow=fill;fontSize=12;fontFamily=Helvetica;html=1;fillColor=#dae8fc;strokeColor=#6c8ebf;container=0;" parent="Y15KBYualhM6AdpMUvsq-44" vertex="1">
          <mxGeometry x="688" y="98" width="340" height="210" as="geometry" />
        </mxCell>
        <mxCell id="5MIo5IohsxzSEOuP6_mu-15" value="&lt;p style=&quot;margin:0px;margin-top:4px;text-align:center;&quot;&gt;&lt;b&gt;TableDAL&lt;/b&gt;&lt;/p&gt;&lt;hr size=&quot;1&quot;&gt;&lt;p style=&quot;border-color: var(--border-color); margin: 0px 0px 0px 4px;&quot;&gt;&lt;font style=&quot;border-color: var(--border-color);&quot; color=&quot;#000000&quot;&gt;- connection: DBConfig&lt;br style=&quot;border-color: var(--border-color);&quot;&gt;&lt;/font&gt;&lt;/p&gt;&lt;p style=&quot;border-color: var(--border-color); margin: 0px 0px 0px 4px;&quot;&gt;&lt;font style=&quot;border-color: var(--border-color);&quot; color=&quot;#000000&quot;&gt;- query : String&lt;/font&gt;&lt;/p&gt;&lt;hr size=&quot;1&quot;&gt;&lt;p style=&quot;margin:0px;margin-left:4px;&quot;&gt;&lt;font color=&quot;#000000&quot;&gt;+&amp;nbsp;&lt;/font&gt;GetAllTables() : Table[]&lt;/p&gt;&lt;p style=&quot;margin:0px;margin-left:4px;&quot;&gt;+ GetTableById(tableId :Int) : Table&lt;/p&gt;&lt;p style=&quot;margin:0px;margin-left:4px;&quot;&gt;+ GetTable (reader : MySqlDataReader)&lt;/p&gt;" style="verticalAlign=top;align=left;overflow=fill;fontSize=12;fontFamily=Helvetica;html=1;fillColor=#dae8fc;strokeColor=#6c8ebf;container=0;" parent="Y15KBYualhM6AdpMUvsq-44" vertex="1">
          <mxGeometry x="1042.25" y="348" width="280" height="119" as="geometry" />
        </mxCell>
        <mxCell id="5MIo5IohsxzSEOuP6_mu-17" value="&lt;p style=&quot;margin:0px;margin-top:4px;text-align:center;&quot;&gt;&lt;b&gt;Table&lt;/b&gt;&lt;/p&gt;&lt;hr size=&quot;1&quot;&gt;&lt;p style=&quot;margin:0px;margin-left:4px;&quot;&gt;&lt;font color=&quot;#000000&quot;&gt;+ TableId: Int&lt;/font&gt;&lt;/p&gt;&lt;p style=&quot;margin:0px;margin-left:4px;&quot;&gt;&lt;font color=&quot;#000000&quot;&gt;+ TableStatus: Int&lt;/font&gt;&lt;/p&gt;&lt;hr size=&quot;1&quot;&gt;&lt;p style=&quot;margin:0px;margin-left:4px;&quot;&gt;&lt;font color=&quot;#000000&quot;&gt;+ Size()&amp;nbsp;&lt;/font&gt;&lt;/p&gt;" style="verticalAlign=top;align=left;overflow=fill;fontSize=12;fontFamily=Helvetica;html=1;fillColor=#dae8fc;strokeColor=#6c8ebf;container=0;" parent="Y15KBYualhM6AdpMUvsq-44" vertex="1">
          <mxGeometry x="30" y="123" width="154" height="100" as="geometry" />
        </mxCell>
        <mxCell id="5MIo5IohsxzSEOuP6_mu-19" style="rounded=0;orthogonalLoop=1;jettySize=auto;html=1;exitX=0;exitY=0.25;exitDx=0;exitDy=0;entryX=1;entryY=0.5;entryDx=0;entryDy=0;endArrow=diamondThin;endFill=1;edgeStyle=orthogonalEdgeStyle;strokeWidth=1;endSize=9;" parent="Y15KBYualhM6AdpMUvsq-44" source="5MIo5IohsxzSEOuP6_mu-5" target="5MIo5IohsxzSEOuP6_mu-17" edge="1">
          <mxGeometry relative="1" as="geometry" />
        </mxCell>
        <mxCell id="5MIo5IohsxzSEOuP6_mu-18" value="&lt;p style=&quot;margin:0px;margin-top:4px;text-align:center;&quot;&gt;&lt;b&gt;Size&lt;/b&gt;&lt;/p&gt;&lt;hr size=&quot;1&quot;&gt;&lt;p style=&quot;margin:0px;margin-left:4px;&quot;&gt;&lt;font color=&quot;#000000&quot;&gt;+ ProductId: Int&lt;/font&gt;&lt;/p&gt;&lt;p style=&quot;margin:0px;margin-left:4px;&quot;&gt;&lt;font color=&quot;#000000&quot;&gt;+ SizeId: Int&lt;/font&gt;&lt;/p&gt;&lt;p style=&quot;margin:0px;margin-left:4px;&quot;&gt;&lt;font color=&quot;#000000&quot;&gt;+ TableStatus: Int&lt;/font&gt;&lt;/p&gt;&lt;p style=&quot;margin:0px;margin-left:4px;&quot;&gt;&lt;font color=&quot;#000000&quot;&gt;+ SizeProduct: Char&lt;/font&gt;&lt;/p&gt;&lt;p style=&quot;margin:0px;margin-left:4px;&quot;&gt;+ SizePrice: Decimal&lt;/p&gt;&lt;hr size=&quot;1&quot;&gt;&lt;p style=&quot;margin:0px;margin-left:4px;&quot;&gt;&lt;font color=&quot;#000000&quot;&gt;+ Size()&amp;nbsp;&lt;/font&gt;&lt;/p&gt;" style="verticalAlign=top;align=left;overflow=fill;fontSize=12;fontFamily=Helvetica;html=1;fillColor=#dae8fc;strokeColor=#6c8ebf;container=0;" parent="Y15KBYualhM6AdpMUvsq-44" vertex="1">
          <mxGeometry x="230" y="288" width="154" height="140" as="geometry" />
        </mxCell>
        <mxCell id="Y15KBYualhM6AdpMUvsq-2" value="1" style="text;html=1;strokeColor=none;fillColor=none;align=center;verticalAlign=middle;whiteSpace=wrap;rounded=0;" parent="Y15KBYualhM6AdpMUvsq-44" vertex="1">
          <mxGeometry x="398" y="156" width="60" height="30" as="geometry" />
        </mxCell>
        <mxCell id="Y15KBYualhM6AdpMUvsq-3" value="*..." style="text;html=1;strokeColor=none;fillColor=none;align=center;verticalAlign=middle;whiteSpace=wrap;rounded=0;" parent="Y15KBYualhM6AdpMUvsq-44" vertex="1">
          <mxGeometry x="421.5" y="156" width="60" height="30" as="geometry" />
        </mxCell>
        <mxCell id="Y15KBYualhM6AdpMUvsq-4" value="1" style="text;html=1;strokeColor=none;fillColor=none;align=center;verticalAlign=middle;whiteSpace=wrap;rounded=0;" parent="Y15KBYualhM6AdpMUvsq-44" vertex="1">
          <mxGeometry x="401" y="268" width="60" height="30" as="geometry" />
        </mxCell>
        <mxCell id="Y15KBYualhM6AdpMUvsq-5" value="*..." style="text;html=1;strokeColor=none;fillColor=none;align=center;verticalAlign=middle;whiteSpace=wrap;rounded=0;" parent="Y15KBYualhM6AdpMUvsq-44" vertex="1">
          <mxGeometry x="370" y="328" width="60" height="30" as="geometry" />
        </mxCell>
        <mxCell id="Y15KBYualhM6AdpMUvsq-6" value="1" style="text;html=1;strokeColor=none;fillColor=none;align=center;verticalAlign=middle;whiteSpace=wrap;rounded=0;" parent="Y15KBYualhM6AdpMUvsq-44" vertex="1">
          <mxGeometry x="43" y="428" width="60" height="30" as="geometry" />
        </mxCell>
        <mxCell id="Y15KBYualhM6AdpMUvsq-7" value="*..." style="text;html=1;strokeColor=none;fillColor=none;align=center;verticalAlign=middle;whiteSpace=wrap;rounded=0;" parent="Y15KBYualhM6AdpMUvsq-44" vertex="1">
          <mxGeometry x="476" y="348" width="60" height="30" as="geometry" />
        </mxCell>
        <mxCell id="Y15KBYualhM6AdpMUvsq-9" value="1" style="text;html=1;strokeColor=none;fillColor=none;align=center;verticalAlign=middle;whiteSpace=wrap;rounded=0;" parent="Y15KBYualhM6AdpMUvsq-44" vertex="1">
          <mxGeometry x="160" y="308" width="60" height="30" as="geometry" />
        </mxCell>
        <mxCell id="Y15KBYualhM6AdpMUvsq-10" value="*..." style="text;html=1;strokeColor=none;fillColor=none;align=center;verticalAlign=middle;whiteSpace=wrap;rounded=0;" parent="Y15KBYualhM6AdpMUvsq-44" vertex="1">
          <mxGeometry x="184" y="193" width="60" height="30" as="geometry" />
        </mxCell>
        <mxCell id="Y15KBYualhM6AdpMUvsq-12" value="1" style="text;html=1;strokeColor=none;fillColor=none;align=center;verticalAlign=middle;whiteSpace=wrap;rounded=0;" parent="Y15KBYualhM6AdpMUvsq-44" vertex="1">
          <mxGeometry x="160" y="146" width="60" height="30" as="geometry" />
        </mxCell>
        <mxCell id="Y15KBYualhM6AdpMUvsq-14" value="1" style="text;html=1;strokeColor=none;fillColor=none;align=center;verticalAlign=middle;whiteSpace=wrap;rounded=0;" parent="Y15KBYualhM6AdpMUvsq-44" vertex="1">
          <mxGeometry x="190" y="116" width="60" height="30" as="geometry" />
        </mxCell>
        <mxCell id="Y15KBYualhM6AdpMUvsq-22" style="edgeStyle=orthogonalEdgeStyle;rounded=0;orthogonalLoop=1;jettySize=auto;html=1;exitX=1;exitY=0.5;exitDx=0;exitDy=0;entryX=0.88;entryY=1.006;entryDx=0;entryDy=0;endArrow=block;endFill=0;endSize=9;entryPerimeter=0;" parent="Y15KBYualhM6AdpMUvsq-44" source="Y15KBYualhM6AdpMUvsq-15" target="5MIo5IohsxzSEOuP6_mu-15" edge="1">
          <mxGeometry relative="1" as="geometry" />
        </mxCell>
        <mxCell id="Y15KBYualhM6AdpMUvsq-35" style="edgeStyle=orthogonalEdgeStyle;rounded=0;orthogonalLoop=1;jettySize=auto;html=1;exitX=0;exitY=0.25;exitDx=0;exitDy=0;endArrow=block;endFill=0;endSize=9;strokeWidth=1;startSize=6;" parent="Y15KBYualhM6AdpMUvsq-44" source="Y15KBYualhM6AdpMUvsq-15" edge="1">
          <mxGeometry relative="1" as="geometry">
            <mxPoint x="881" y="470" as="targetPoint" />
            <Array as="points">
              <mxPoint x="881" y="844" />
              <mxPoint x="881" y="643" />
            </Array>
          </mxGeometry>
        </mxCell>
        <mxCell id="Y15KBYualhM6AdpMUvsq-15" value="&lt;p style=&quot;margin:0px;margin-top:4px;text-align:center;&quot;&gt;&lt;b&gt;TableBL&lt;/b&gt;&lt;/p&gt;&lt;hr size=&quot;1&quot;&gt;&lt;p style=&quot;border-color: var(--border-color); margin: 0px 0px 0px 4px;&quot;&gt;&lt;font style=&quot;border-color: var(--border-color);&quot; color=&quot;#000000&quot;&gt;- tableDAL : TableDAL&lt;/font&gt;&lt;/p&gt;&lt;hr size=&quot;1&quot;&gt;&lt;p style=&quot;margin:0px;margin-left:4px;&quot;&gt;&lt;font color=&quot;#000000&quot;&gt;+&amp;nbsp;&lt;/font&gt;GetAllTables() : Table[]&lt;/p&gt;&lt;p style=&quot;margin:0px;margin-left:4px;&quot;&gt;+ GetTableById(tableId :Int) : Table&lt;/p&gt;" style="verticalAlign=top;align=left;overflow=fill;fontSize=12;fontFamily=Helvetica;html=1;fillColor=#dae8fc;strokeColor=#6c8ebf;container=0;" parent="Y15KBYualhM6AdpMUvsq-44" vertex="1">
          <mxGeometry x="900" y="818" width="340" height="105" as="geometry" />
        </mxCell>
        <mxCell id="Y15KBYualhM6AdpMUvsq-23" style="edgeStyle=orthogonalEdgeStyle;rounded=0;orthogonalLoop=1;jettySize=auto;html=1;exitX=0.5;exitY=1;exitDx=0;exitDy=0;entryX=1;entryY=0.75;entryDx=0;entryDy=0;endArrow=block;endFill=0;endSize=10;" parent="Y15KBYualhM6AdpMUvsq-44" source="Y15KBYualhM6AdpMUvsq-16" target="5MIo5IohsxzSEOuP6_mu-12" edge="1">
          <mxGeometry relative="1" as="geometry" />
        </mxCell>
        <mxCell id="Y15KBYualhM6AdpMUvsq-36" style="edgeStyle=orthogonalEdgeStyle;rounded=0;orthogonalLoop=1;jettySize=auto;html=1;exitX=1;exitY=0.25;exitDx=0;exitDy=0;endArrow=block;endFill=0;endSize=9;" parent="Y15KBYualhM6AdpMUvsq-44" source="Y15KBYualhM6AdpMUvsq-16" edge="1">
          <mxGeometry relative="1" as="geometry">
            <mxPoint x="847" y="470" as="targetPoint" />
            <Array as="points">
              <mxPoint x="847" y="901" />
            </Array>
          </mxGeometry>
        </mxCell>
        <mxCell id="Y15KBYualhM6AdpMUvsq-16" value="&lt;p style=&quot;margin:0px;margin-top:4px;text-align:center;&quot;&gt;&lt;b&gt;&lt;font color=&quot;#000000&quot;&gt;ProductBL&lt;/font&gt;&lt;/b&gt;&lt;/p&gt;&lt;hr size=&quot;1&quot;&gt;&lt;p style=&quot;margin:0px;margin-left:4px;&quot;&gt;&lt;span style=&quot;background-color: initial;&quot;&gt;- productDAL : ProductDAL&lt;br&gt;&lt;/span&gt;&lt;/p&gt;&lt;hr size=&quot;1&quot;&gt;&lt;p style=&quot;margin:0px;margin-left:4px;&quot;&gt;&lt;span style=&quot;background-color: initial;&quot;&gt;+ GetProductById(ProductId): Product&lt;/span&gt;&lt;/p&gt;&lt;p style=&quot;border-color: var(--border-color); margin: 0px 0px 0px 4px;&quot;&gt;+ GetProductInStockById(ProductId : Int): Product&lt;br style=&quot;border-color: var(--border-color);&quot;&gt;&lt;/p&gt;&lt;p style=&quot;border-color: var(--border-color); margin: 0px 0px 0px 4px;&quot;&gt;+ GetProductByIdAndSize(ProductId : Int, sizeId : Int): Product&lt;/p&gt;&lt;p style=&quot;border-color: var(--border-color); margin: 0px 0px 0px 4px;&quot;&gt;+ GetAllProductActive() : Product[]&lt;/p&gt;&lt;p style=&quot;border-color: var(--border-color); margin: 0px 0px 0px 4px;&quot;&gt;+ GetListProductInOrder(orderId : Int) : Product[]&lt;/p&gt;&lt;p style=&quot;border-color: var(--border-color); margin: 0px 0px 0px 4px;&quot;&gt;+&amp;nbsp;GetListAllProductInstock() : Product[]&lt;/p&gt;&lt;p style=&quot;border-color: var(--border-color); margin: 0px 0px 0px 4px;&quot;&gt;+&amp;nbsp;ChangeProductStatus(newStatus : Int, productId : Int)&lt;/p&gt;&lt;div&gt;&lt;span style=&quot;border-color: var(--border-color); background-color: initial;&quot;&gt;&lt;br&gt;&lt;/span&gt;&lt;/div&gt;&lt;div&gt;&lt;span style=&quot;border-color: var(--border-color); background-color: initial;&quot;&gt;&lt;br&gt;&lt;/span&gt;&lt;/div&gt;" style="verticalAlign=top;align=left;overflow=fill;fontSize=12;fontFamily=Helvetica;html=1;fillColor=#dae8fc;strokeColor=#6c8ebf;container=0;" parent="Y15KBYualhM6AdpMUvsq-44" vertex="1">
          <mxGeometry x="481.5" y="858" width="354" height="170" as="geometry" />
        </mxCell>
        <mxCell id="Y15KBYualhM6AdpMUvsq-26" style="edgeStyle=orthogonalEdgeStyle;rounded=0;orthogonalLoop=1;jettySize=auto;html=1;exitX=0.5;exitY=0;exitDx=0;exitDy=0;entryX=0;entryY=0.25;entryDx=0;entryDy=0;endArrow=block;endFill=0;endSize=9;" parent="Y15KBYualhM6AdpMUvsq-44" source="Y15KBYualhM6AdpMUvsq-17" target="5MIo5IohsxzSEOuP6_mu-14" edge="1">
          <mxGeometry relative="1" as="geometry">
            <Array as="points">
              <mxPoint x="656" y="586" />
              <mxPoint x="656" y="151" />
            </Array>
          </mxGeometry>
        </mxCell>
        <mxCell id="Y15KBYualhM6AdpMUvsq-29" style="edgeStyle=orthogonalEdgeStyle;rounded=0;orthogonalLoop=1;jettySize=auto;html=1;exitX=0.75;exitY=0;exitDx=0;exitDy=0;endArrow=block;endFill=0;endSize=9;" parent="Y15KBYualhM6AdpMUvsq-44" source="Y15KBYualhM6AdpMUvsq-17" edge="1">
          <mxGeometry relative="1" as="geometry">
            <mxPoint x="746" y="468" as="targetPoint" />
          </mxGeometry>
        </mxCell>
        <mxCell id="Y15KBYualhM6AdpMUvsq-17" value="&lt;p style=&quot;margin:0px;margin-top:4px;text-align:center;&quot;&gt;&lt;b&gt;&lt;font color=&quot;#000000&quot;&gt;StaffDAL&lt;/font&gt;&lt;/b&gt;&lt;/p&gt;&lt;hr size=&quot;1&quot;&gt;&lt;p style=&quot;margin:0px;margin-left:4px;&quot;&gt;&lt;font color=&quot;#000000&quot;&gt;- staffDAL: StaffDAL&lt;/font&gt;&lt;/p&gt;&lt;p style=&quot;margin:0px;margin-left:4px;&quot;&gt;- query : String&lt;font color=&quot;#000000&quot;&gt;&lt;br&gt;&lt;/font&gt;&lt;/p&gt;&lt;hr size=&quot;1&quot;&gt;&lt;p style=&quot;margin:0px;margin-left:4px;&quot;&gt;&lt;font color=&quot;#000000&quot;&gt;+ CheckAuthorize(userName, password): Staff&lt;/font&gt;&lt;/p&gt;&lt;p style=&quot;margin:0px;margin-left:4px;&quot;&gt;&lt;font color=&quot;#000000&quot;&gt;+ GetLastStaffLogOut() : Staff&lt;/font&gt;&lt;/p&gt;&lt;p style=&quot;margin:0px;margin-left:4px;&quot;&gt;+&amp;nbsp;GetStaffByID (staffId : Int) : Staff&lt;/p&gt;&lt;p style=&quot;margin:0px;margin-left:4px;&quot;&gt;+&amp;nbsp;CheckNullableInLogindetails()&lt;/p&gt;&lt;p style=&quot;margin:0px;margin-left:4px;&quot;&gt;+&amp;nbsp;InsertNewLoginDetails (staff : Staff)&lt;/p&gt;&lt;p style=&quot;margin:0px;margin-left:4px;&quot;&gt;+&amp;nbsp;UpdateLogoutTime (timeFormat : string, total : Decimal)&lt;/p&gt;&lt;p style=&quot;margin:0px;margin-left:4px;&quot;&gt;+ InsertProblemLogin(problem : String)&lt;/p&gt;" style="verticalAlign=top;align=left;overflow=fill;fontSize=12;fontFamily=Helvetica;html=1;fillColor=#dae8fc;strokeColor=#6c8ebf;container=0;" parent="Y15KBYualhM6AdpMUvsq-44" vertex="1">
          <mxGeometry x="481.5" y="585.5" width="354" height="182.5" as="geometry" />
        </mxCell>
        <mxCell id="Y15KBYualhM6AdpMUvsq-25" style="edgeStyle=orthogonalEdgeStyle;rounded=0;orthogonalLoop=1;jettySize=auto;html=1;exitX=0.5;exitY=0;exitDx=0;exitDy=0;entryX=1;entryY=0.5;entryDx=0;entryDy=0;endArrow=block;endFill=0;strokeWidth=1;endSize=10;" parent="Y15KBYualhM6AdpMUvsq-44" source="Y15KBYualhM6AdpMUvsq-18" target="5MIo5IohsxzSEOuP6_mu-11" edge="1">
          <mxGeometry relative="1" as="geometry">
            <Array as="points">
              <mxPoint x="1070" y="548" />
              <mxPoint x="1340" y="548" />
              <mxPoint x="1340" y="217" />
            </Array>
          </mxGeometry>
        </mxCell>
        <mxCell id="Y15KBYualhM6AdpMUvsq-32" style="edgeStyle=orthogonalEdgeStyle;rounded=0;orthogonalLoop=1;jettySize=auto;html=1;exitX=0.25;exitY=0;exitDx=0;exitDy=0;endArrow=block;endFill=0;endSize=9;entryX=0.872;entryY=1.033;entryDx=0;entryDy=0;entryPerimeter=0;" parent="Y15KBYualhM6AdpMUvsq-44" source="Y15KBYualhM6AdpMUvsq-18" target="5MIo5IohsxzSEOuP6_mu-9" edge="1">
          <mxGeometry relative="1" as="geometry">
            <mxPoint x="985" y="470" as="targetPoint" />
          </mxGeometry>
        </mxCell>
        <mxCell id="Y15KBYualhM6AdpMUvsq-18" value="&lt;p style=&quot;margin:0px;margin-top:4px;text-align:center;&quot;&gt;&lt;b&gt;OrderBL&lt;/b&gt;&lt;/p&gt;&lt;hr size=&quot;1&quot;&gt;&lt;p style=&quot;margin:0px;margin-left:4px;&quot;&gt;&lt;font color=&quot;#000000&quot;&gt;- orderDAL : OrderDAL&lt;/font&gt;&lt;/p&gt;&lt;hr size=&quot;1&quot;&gt;&lt;p style=&quot;margin:0px;margin-left:4px;&quot;&gt;&lt;font color=&quot;#000000&quot;&gt;+ CreateOrder(order : Order)&lt;/font&gt;&lt;/p&gt;&lt;p style=&quot;margin:0px;margin-left:4px;&quot;&gt;&lt;font color=&quot;#000000&quot;&gt;+ UpdateOrder(order : Order)&lt;/font&gt;&lt;/p&gt;&lt;p style=&quot;margin:0px;margin-left:4px;&quot;&gt;&lt;font color=&quot;#000000&quot;&gt;+ DeleteOrder(order : Order)&lt;/font&gt;&lt;/p&gt;&lt;p style=&quot;margin:0px;margin-left:4px;&quot;&gt;&lt;font color=&quot;#000000&quot;&gt;+ GetOrdersInBar() : Order[]&lt;/font&gt;&lt;/p&gt;&lt;p style=&quot;margin:0px;margin-left:4px;&quot;&gt;&lt;font color=&quot;#000000&quot;&gt;+&amp;nbsp;&lt;/font&gt;GetTakeAwayOrders() : Order[]&lt;/p&gt;&lt;p style=&quot;margin:0px;margin-left:4px;&quot;&gt;+&amp;nbsp;CompleteOrder(order : Order)&lt;/p&gt;&lt;p style=&quot;margin:0px;margin-left:4px;&quot;&gt;+&amp;nbsp;GetOrderById(orderId : int) : Order&lt;/p&gt;&lt;p style=&quot;margin:0px;margin-left:4px;&quot;&gt;+ GetOrderByTable(tableId) : Order&lt;/p&gt;&lt;p style=&quot;margin:0px;margin-left:4px;&quot;&gt;+ GetOrderCompleteInDay() : Order&lt;/p&gt;&lt;p style=&quot;margin:0px;margin-left:4px;&quot;&gt;+ ChangeTableOrder(newTableId : Int, order : Order)&lt;/p&gt;" style="verticalAlign=top;align=left;overflow=fill;fontSize=12;fontFamily=Helvetica;html=1;fillColor=#dae8fc;strokeColor=#6c8ebf;container=0;" parent="Y15KBYualhM6AdpMUvsq-44" vertex="1">
          <mxGeometry x="900" y="585.5" width="340" height="210" as="geometry" />
        </mxCell>
        <mxCell id="Y15KBYualhM6AdpMUvsq-24" style="edgeStyle=orthogonalEdgeStyle;rounded=0;orthogonalLoop=1;jettySize=auto;html=1;exitX=1;exitY=0.5;exitDx=0;exitDy=0;entryX=0.5;entryY=1;entryDx=0;entryDy=0;endArrow=block;endFill=0;endSize=9;strokeWidth=1;startSize=6;" parent="Y15KBYualhM6AdpMUvsq-44" source="Y15KBYualhM6AdpMUvsq-19" target="5MIo5IohsxzSEOuP6_mu-10" edge="1">
          <mxGeometry relative="1" as="geometry" />
        </mxCell>
        <mxCell id="Y15KBYualhM6AdpMUvsq-34" style="edgeStyle=orthogonalEdgeStyle;rounded=0;orthogonalLoop=1;jettySize=auto;html=1;exitX=0;exitY=0.25;exitDx=0;exitDy=0;endArrow=block;endFill=0;endSize=9;" parent="Y15KBYualhM6AdpMUvsq-44" source="Y15KBYualhM6AdpMUvsq-19" edge="1">
          <mxGeometry relative="1" as="geometry">
            <mxPoint x="866" y="470" as="targetPoint" />
          </mxGeometry>
        </mxCell>
        <mxCell id="Y15KBYualhM6AdpMUvsq-19" value="&lt;p style=&quot;margin:0px;margin-top:4px;text-align:center;&quot;&gt;&lt;b&gt;SizeBL&lt;/b&gt;&lt;/p&gt;&lt;hr size=&quot;1&quot;&gt;&lt;p style=&quot;margin:0px;margin-left:4px;&quot;&gt;&lt;font color=&quot;#000000&quot;&gt;- sizeDAL : SizeDAL&lt;/font&gt;&lt;/p&gt;&lt;hr size=&quot;1&quot;&gt;&lt;p style=&quot;margin:0px;margin-left:4px;&quot;&gt;&lt;span style=&quot;background-color: initial;&quot;&gt;+ GetSizeBySizeId(sizeId : Int)&lt;/span&gt;&lt;br&gt;&lt;/p&gt;" style="verticalAlign=top;align=left;overflow=fill;fontSize=12;fontFamily=Helvetica;html=1;fillColor=#dae8fc;strokeColor=#6c8ebf;container=0;" parent="Y15KBYualhM6AdpMUvsq-44" vertex="1">
          <mxGeometry x="900" y="948" width="340" height="80" as="geometry" />
        </mxCell>
        <mxCell id="5MIo5IohsxzSEOuP6_mu-21" style="rounded=0;orthogonalLoop=1;jettySize=auto;html=1;exitX=0;exitY=0.75;exitDx=0;exitDy=0;entryX=1;entryY=0.5;entryDx=0;entryDy=0;endArrow=diamondThin;endFill=1;edgeStyle=orthogonalEdgeStyle;endSize=9;" parent="Y15KBYualhM6AdpMUvsq-44" source="5MIo5IohsxzSEOuP6_mu-4" target="5MIo5IohsxzSEOuP6_mu-18" edge="1">
          <mxGeometry relative="1" as="geometry" />
        </mxCell>
        <mxCell id="Y15KBYualhM6AdpMUvsq-37" style="edgeStyle=orthogonalEdgeStyle;rounded=0;orthogonalLoop=1;jettySize=auto;html=1;exitX=0;exitY=0;exitDx=1054.5;exitDy=140;exitPerimeter=0;entryX=0.5;entryY=1;entryDx=0;entryDy=0;endArrow=block;endFill=0;endSize=9;" parent="1" source="5MIo5IohsxzSEOuP6_mu-8" target="egkqMNy7m-KPahkOpKZH-30" edge="1">
          <mxGeometry relative="1" as="geometry">
            <Array as="points">
              <mxPoint x="2084" y="1598" />
            </Array>
          </mxGeometry>
        </mxCell>
      </root>
    </mxGraphModel>
  </diagram>
</mxfile>
